<?xml version="1.0" encoding="UTF-8" standalone="no"?>
<!-- Created with Inkscape (http://www.inkscape.org/) -->

<svg
   xmlns:dc="http://purl.org/dc/elements/1.1/"
   xmlns:cc="http://creativecommons.org/ns#"
   xmlns:rdf="http://www.w3.org/1999/02/22-rdf-syntax-ns#"
   xmlns:svg="http://www.w3.org/2000/svg"
   xmlns="http://www.w3.org/2000/svg"
   xmlns:sodipodi="http://sodipodi.sourceforge.net/DTD/sodipodi-0.dtd"
   xmlns:inkscape="http://www.inkscape.org/namespaces/inkscape"
   width="722.5"
   height="272.5"
   viewBox="0 0 722.49997 272.5"
   id="svg2"
   version="1.1"
   inkscape:version="0.91 r13725"
   sodipodi:docname="drawing.svg">
  <defs
     id="defs4" />
  <sodipodi:namedview
     id="base"
     pagecolor="#ffffff"
     bordercolor="#666666"
     borderopacity="1.0"
     inkscape:pageopacity="0.0"
     inkscape:pageshadow="2"
     inkscape:zoom="0.35"
     inkscape:cx="718.29495"
     inkscape:cy="-256.86471"
     inkscape:document-units="px"
     inkscape:current-layer="layer1"
     showgrid="false"
     fit-margin-top="0"
     fit-margin-left="0"
     fit-margin-right="0"
     fit-margin-bottom="0"
     units="px"
     inkscape:window-width="1366"
     inkscape:window-height="715"
     inkscape:window-x="-8"
     inkscape:window-y="-8"
     inkscape:window-maximized="1" />
  <metadata
     id="metadata7">
    <rdf:RDF>
      <cc:Work
         rdf:about="">
        <dc:format>image/svg+xml</dc:format>
        <dc:type
           rdf:resource="http://purl.org/dc/dcmitype/StillImage" />
        <dc:title></dc:title>
      </cc:Work>
    </rdf:RDF>
  </metadata>
  <g
     inkscape:label="Layer 1"
     inkscape:groupmode="layer"
     id="layer1"
     transform="translate(343.29495,-2.9974802)">
    <path
       style="fill:#000000"
       d="m -285.82768,255.10856 c -4.47165,-4.47165 -2.24943,-14.17214 5.67821,-24.7866 1.76854,-2.36794 3.21554,-5.04532 3.21554,-5.94974 0,-0.90441 1.125,-2.60764 2.5,-3.78495 1.375,-1.17731 2.5,-2.63294 2.5,-3.23471 0,-1.32759 24.36994,-25.85025 25.68927,-25.85025 0.51325,0 2.76812,-1.88938 5.01083,-4.19863 2.2427,-2.30923 4.9714,-4.54158 6.06377,-4.96076 5.0108,-1.92282 0.15354,-4.30436 -8.99195,-4.40877 -7.0206,-0.0801 -23.97883,-8.23757 -25.88083,-12.44943 -0.67866,-1.50282 -1.63472,-2.73241 -2.1246,-2.73241 -0.48988,0 -1.55229,-3.36284 -2.36091,-7.47297 -1.6554,-8.41426 -0.3552,-7.81826 -16.6896,-7.65037 -7.11533,0.0731 -11.18214,0.76543 -14.42471,2.45555 -6.64928,3.4658 -11.959,4.30384 -16.91195,2.66921 -8.08681,-2.66888 -4.69161,-10.39692 6.27464,-14.28211 3.42157,-1.21221 7.62729,-2.89941 9.34604,-3.74932 1.71875,-0.84993 6.11847,-1.64266 9.77716,-1.76167 3.65869,-0.119 7.59677,-0.72187 8.75127,-1.33975 1.15451,-0.61787 4.34853,-1.29891 7.09783,-1.51342 5.22978,-0.40806 9.34822,-4.32956 9.3655,-8.91765 0.004,-1.20312 0.7918,-2.1875 1.7495,-2.1875 0.95769,0 2.06504,-0.84375 2.46077,-1.875 0.39573,-1.03125 1.543,-1.875 2.5495,-1.875 1.0065,0 2.15335,-1.01881 2.54857,-2.26403 0.39522,-1.24522 3.3725,-4.4796 6.61619,-7.1875 3.24369,-2.70791 7.62058,-6.704196 9.72642,-8.880636 2.10584,-2.17644 6.56054,-5.40965 9.89934,-7.18491 3.33879,-1.77525 6.70587,-3.75501 7.48239,-4.39947 0.77652,-0.64445 4.21055,-2.11807 7.6312,-3.2747 3.42064,-1.15664 6.55692,-2.63667 6.96949,-3.28897 0.71946,-1.1375 3.50626,-1.97083 7.2707,-2.17414 0.97395,-0.0526 1.38468,-0.48179 0.91271,-0.95376 -1.39981,-1.39981 11.92363,-6.41898 22.49578,-8.47456 16.90187,-3.28629 23.04041,-4.80934 23.7027,-5.88094 0.35229,-0.57001 3.04005,-1.03638 5.9728,-1.03638 2.93276,0 9.27524,-1.34108 14.09439,-2.98018 4.81916,-1.6391 11.16892,-3.38681 14.11061,-3.88381 2.94167,-0.49699 7.332,-2.24966 9.75627,-3.89482 2.42428,-1.64515 5.87615,-3.03689 7.67084,-3.09274 5.34683,-0.1664 9.136245,-0.84462 16.347975,-2.92591 8.57677,-2.47524 12.41663,-2.49873 13.34416,-0.0816 0.94817,2.47092 -1.4481,5.24701 -6.97045,8.0753 -2.45225,1.25592 -6.70863,4.4641 -9.45863,7.12928 -2.75,2.66518 -6.484105,5.98745 -8.298015,7.38283 -1.8139,1.39537 -5.28393,5.64152 -7.71115,9.43589 -2.42723,3.79437 -6.28686,8.57795 -8.57699,10.6302 -4.72506,4.23429 -10.72444,11.67752 -14.1676,17.577266 -1.92699,3.30184 -2.07975,4.55142 -0.87866,7.1875 2.00362,4.39749 7.7172,4.22102 16.50742,-0.50987 3.78125,-2.03507 7.71875,-3.75298 8.75,-3.81759 1.03125,-0.0646 5.53125,-2.28375 9.999995,-4.93142 4.46875,-2.647666 11.21875,-6.299446 15,-8.115056 11.74364,-5.63883 19.22085,-9.74847 23.24299,-12.77485 2.1274,-1.60071 4.50505,-2.91039 5.28369,-2.91039 0.77862,0 2.26426,-1.29509 3.30141,-2.87797 1.06116,-1.61954 9.28563,-6.59932 18.80899,-11.38855 9.3078,-4.68083 17.46266,-9.51845 18.12191,-10.75027 0.65925,-1.23183 3.78475,-3.4916 6.9455605,-5.02172 3.1608,-1.53012 6.04302,-3.55366 6.40493,-4.49676 0.3619,-0.9431 1.38138998,-1.71473 2.26551998,-1.71473 0.88414,0 1.93130002,-0.84375 2.32704002,-1.875 0.39573,-1.03125 1.5809,-1.875 2.63374,-1.875 1.05282,0 1.91422,-0.57456 1.91422,-1.2768 0,-0.70224 1.54688,-1.94044 3.4374995,-2.75155 5.53774,-2.37581 10.3991,-6.07025 9.62843,-7.31723 -0.39241,-0.63493 0.16347,-1.15442 1.2353,-1.15442 1.07182,0 1.94877,-0.54642 1.94877,-1.21426 0,-1.9514 7.8033,-3.52212 10.83157,-2.18028 5.42481,2.40376 4.38191,5.36195 -5.90869,16.75993 -5.40958,5.99171 -11.4021,11.70258 -13.31673,12.69083 -4.13407,2.13383 -13.1659995,11.0934 -19.0967595,18.94378 -2.33725,3.09375 -6.6015505,8.19906 -9.4762405,11.34514 -2.87468,3.14608 -5.58302,6.84282 -6.01853,8.21497 -0.4355,1.37216 -2.89508,3.6824 -5.46573,5.13388 -6.88165,3.88563 -14.87204,12.333496 -18.50992,19.569686 -1.75894,3.49873 -3.84549,7.31872 -4.6368,8.48887 -1.88408,2.78609 -0.12475,4.46693 2.59528,2.47945 1.17015,-0.85502 3.14374,-1.89343 4.38575,-2.30756 1.30275,-0.4344 1.9699,-1.50426 1.57682,-2.52864 -0.41488,-1.08116 -0.14343,-1.44317 0.69406,-0.92558 0.75649,0.46754 1.73442,0.32479 2.17317,-0.31721 0.91815,-1.34344 12.0186,-6.65301 13.90913,-6.65301 0.695,0 1.26362,-0.53376 1.26362,-1.18613 0,-0.65236 3.21872,-2.19924 7.15272,-3.4375 5.4072205,-1.70196 8.5338605,-3.72532 12.8125005,-8.291376 3.11287,-3.322 7.20065,-6.84897 9.08392,-7.83769 1.88328,-0.98873 6.3363795,-4.38416 9.8957595,-7.5454 3.5594,-3.16125 7.92479,-6.38631 9.70087,-7.1668 9.88113,-4.34223 14.84193,-9.73004 17.84081,-19.37645 2.29667,-7.38767 3.71754,-8.86034 8.57684,-8.88951 2.55541,-0.0153 3.73915,1.11441 5.96235,5.69043 2.43406,5.01005 2.59625,6.30256 1.32377,10.54969 -0.79757,2.66208 -3.19937,6.50925 -5.33734,8.54929 -4.86657,4.64366 -34.7155,24.69509 -38.54695,25.89445 -3.75367,1.175006 -10.4647795,6.796996 -8.1137595,6.796996 1.09426,0 2.2460395,2.07087 2.9547295,5.3125 1.12743,5.1571 0.51868,8.04996 -3.9849795,18.9371 -0.86304,2.08629 -0.57226,2.27167 2.39506,1.52693 1.8575495,-0.46622 5.6539695,-0.23464 8.4364795,0.51461 8.17364,2.20094 17.46111,0.36232 26.88706,-5.32273 8.0327,-4.84475 15.23254,-11.63171 16.90324,-15.93392 0.92486,-2.38157 13.24169,-7.04733 23.55692,-8.92362 6.75868,-1.22938 6.93317,-1.18557 10.3125,2.58902 3.84355,4.29309 4.528675,10.03037 1.55312,13.00593 -1.67919,1.67918 -1.44098,1.92712 2.1875,2.27678 3.601255,0.34705 4.117865,0.8714 4.469675,4.53655 0.21879,2.27929 -0.27196,4.95116 -1.09055,5.9375 -1.61757,1.94905 -0.35024,2.29444 6.69545,1.82476 1.92649,-0.12842 4.88088,0.66952 6.56531,1.77319 2.66544,1.74648 3.50803,1.78232 6.4973,0.27647 1.88909,-0.95162 4.98877,-2.10293 6.88817,-2.55847 1.89941,-0.45554 6.96191,-3.78839 11.25,-7.40635 14.08153,-11.88089 22.51643,-16.77174 25.59021,-14.83808 2.6304,1.65474 3.30701,8.31758 1.07165,10.55293 -1.09468,1.09467 -1.99033,2.68934 -1.99033,3.54369 0,0.85435 -0.92031,2.5703 -2.04515,3.81322 -2.31237,2.55514 -1.7956,2.90534 5.84174,3.95868 3.91475,0.53992 5.0442,-0.0113 9.85318,-4.8104 7.33802,-7.3227 11.83978,-9.16195 15.13213,-6.18241 1.35745,1.22847 2.4681,3.20253 2.4681,4.38679 0,1.18428 0.84094,2.85113 1.86874,3.70414 1.50514,1.24914 2.46946,1.15731 4.95603,-0.47195 3.79073,-2.48378 10.6272,-2.62262 13.82975,-0.28085 1.52568,1.1156 3.31988,1.38554 4.98967,0.75069 1.43405,-0.54521 4.1027,-0.70545 5.93034,-0.35607 2.75567,0.52677 4.4126,-0.48343 9.70526,-5.91721 3.51024,-3.60383 8.66908,-8.463 11.46406,-10.79815 2.795,-2.33515 6.66497,-6.43121 8.59993,-9.10235 1.93496,-2.67114 4.74851,-5.247126 6.25232,-5.724416 2.1326,-0.67686 2.35408,-1.10488 1.00657,-1.94523 -1.41608,-0.88312 -1.17639,-2.12235 1.32907,-6.8713 1.6812,-3.18663 3.79058,-6.07548 4.6875,-6.41966 0.89691,-0.34418 1.63076,-1.37746 1.63076,-2.29617 0,-0.91871 1.08784,-2.43233 2.41743,-3.36361 1.62811,-1.14038 2.06605,-2.26174 1.34127,-3.43446 -1.41898,-2.29597 1.73228,-8.3547 4.86212,-9.34807 1.31902,-0.41864 2.70403,-1.55809 3.07781,-2.53211 1.02597,-2.67365 10.53894,-7.08391 14.33386,-6.64525 3.07001,0.35486 3.32405,0.81104 3.1161,5.59556 -0.20559,4.73046 -4.534,13.58549 -8.45187,17.2908 -3.05987,2.89385 -13.04869,15.37493 -16.00634,20 -1.75858,2.75 -6.62708,9.468276 -10.8189,14.929506 -4.19181,5.46123 -7.62148,10.95388 -7.62148,12.20588 0,1.252 1.70732,3.31464 3.79404,4.58365 3.3691,2.04887 4.52409,2.13776 10.3125,0.79368 3.58515,-0.83247 11.29971,-1.91311 17.14346,-2.40142 5.84375,-0.48831 12.59375,-1.39047 15,-2.00481 2.40625,-0.61433 7.1875,-1.48272 10.625,-1.92974 3.4375,-0.44704 6.97697,-1.40521 7.86548,-2.12929 1.1408,-0.92967 2.04066,-0.89132 3.0625,0.13051 2.09892,2.09893 12.8093,1.77359 19.52926,-0.59322 5.30805,-1.86952 6.18646,-1.87425 10.49784,-0.0565 2.58779,1.09109 5.07187,2.93969 5.5202,4.108 1.1555,3.01119 -1.77441,13.15561 -4.63591,16.05119 -3.3187,3.35823 -9.71682,3.11953 -14.67684,-0.54758 -5.00413,-3.69964 -5.10088,-5.01486 -0.3689,-5.01486 4.89946,0 10.42165,-2.18816 9.45782,-3.74766 -0.4257,-0.68879 -1.9733,-1.25234 -3.43913,-1.25234 -2.60878,0 -2.61383,-0.0378 -0.23873,-1.78573 2.26754,-1.66879 2.28255,-1.84148 0.22926,-2.63743 -1.27281,-0.4934 -3.55106,0.0354 -5.41541,1.25697 -1.77004,1.15978 -4.71882,2.30786 -6.55285,2.55131 -1.83402,0.24344 -3.61584,0.49 -3.95959,0.54789 -0.34375,0.0579 0.21875,0.6633 1.25,1.34533 1.58934,1.05112 1.39889,1.62011 -1.25,3.73457 -1.71875,1.37199 -4.53125,2.85166 -6.25,3.28817 -1.71875,0.4365 -3.6875,1.22649 -4.375,1.75553 -0.6875,0.52904 -7.71875,0.96229 -15.625,0.96277 -7.90625,4.8e-4 -20.53471,0.89841 -28.06323,1.99541 -7.52853,1.09698 -14.63879,1.69282 -15.80058,1.32408 -1.3107,-0.41599 -3.55092,0.76818 -5.9031,3.12035 -3.0686,3.06859 -4.8352,3.79078 -9.27302,3.79078 -3.01523,0 -6.38918,0.70312 -7.49764,1.5625 -1.99854,1.54942 -5.52994,7.30857 -9.90988,16.16145 -3.31056,6.69137 -6.88551,7.36492 -11.2381,2.11735 -4.01296,-4.83813 -4.30843,-6.41874 -1.68945,-9.03772 2.77215,-2.77215 2.28314,-4.55358 -1.25,-4.55358 -1.71875,0 -3.125,0.47707 -3.125,1.06016 0,1.60618 -9.58771,5.59219 -11.14141,4.63195 -0.74722,-0.46181 -1.35859,-0.32745 -1.35859,0.29859 0,0.62604 -3.62001,2.11814 -8.04446,3.31579 -8.66091,2.3444 -14.45372,1.84698 -17.18166,-1.47533 -2.73559,-3.33164 -12.57539,-9.08116 -15.5416,-9.08116 -1.54065,0 -5.09648,2.22731 -7.98228,5 -4.23788,4.07176 -6.10015,5 -10.03112,5 -7.32704,0 -9.05063,-3.17706 -6.5302,-12.03698 1.21942,-4.28656 1.50349,-7.27086 0.76262,-8.01172 -2.16855,-2.16855 -13.65047,2.57777 -28.94372,11.96456 -7.198965,4.41863 -11.275785,5.97416 -19.375005,7.39266 -10.04201,1.75877 -10.38893,1.73441 -16.50758,-1.15928 l -6.25,-2.95582 -4.375,2.66372 c -2.40625,1.46505 -4.9375,3.34091 -5.625,4.1686 -0.6875,0.82767 -5.41203,2.49442 -10.49896,3.70388 -8.18537,1.94615 -9.62282,1.99019 -12.5,0.38293 -2.49477,-1.39363 -3.3454,-2.96639 -3.65667,-6.76098 -0.22312,-2.71967 -0.93833,-5.58671 -1.58938,-6.37117 -0.74719,-0.90031 -0.72425,-2.63481 0.0623,-4.70335 0.68526,-1.80238 0.83799,-3.25223 0.33938,-3.22189 -4.18153,0.25447 -13.16413,3.77448 -17.7815695,6.96807 -7.87452,5.44632 -18.61381,10.70848 -20.0468605,9.82281 -0.66172,-0.40898 -1.20314,0.0686 -1.20314,1.06142 0,2.87763 -5.71823,5.84254 -11.2681,5.84254 -12.25783,0 -16.7076,-7.5583 -10.73791,-18.23925 1.79081,-3.2041 3.25601,-6.78474 3.25601,-7.95696 0,-1.17224 1.41914,-2.89084 3.15365,-3.81913 5.59989,-2.99696 2.88,-4.38856 -7.64206,-3.90996 -18.21334,0.82846 -30.1006,8.12934 -61.63232,37.85305 -10.469575,9.86926 -12.254545,11.07225 -16.428765,11.07225 -9.70801,0 -7.45793,-6.71541 7.02779,-20.97471 5.81655,-5.72564 11.988825,-12.64902 13.716155,-15.3853 1.72733,-2.73628 4.2379,-6.07234 5.57904,-7.41348 2.80063,-2.80062 3.8606,-2.34841 -11.27349,-4.80958 -18.648845,-3.03277 -53.986205,-2.35182 -58.170625,1.12095 -1.0062,0.83502 -1.82942,2.78673 -1.82942,4.33712 0,1.55039 -0.82886,3.50679 -1.84192,4.34755 -1.01305,0.84076 -2.17649,3.31204 -2.5854,5.49172 -0.48538,2.58732 -1.98709,4.6768 -4.32593,6.01912 -1.97036,1.13082 -5.10931,4.49405 -6.97546,7.47384 -1.86614,2.97977 -6.15394,8.73974 -9.52845,12.79992 -4.61156,5.54861 -5.72966,7.64427 -4.50165,8.4375 1.10888,0.71628 1.2081,1.35656 0.30883,1.99285 -7.19913,5.09379 -11.80964,9.69342 -17.76463,17.72273 -7.37274,9.94088 -12.23205,14.98807 -21.53539,22.36796 -3.09375,2.45411 -7.3125,5.9775 -9.375,7.82973 -8.64683,7.76533 -26.28369,14.39163 -41.06137,15.42709 -4.7021,0.32947 -6.64142,-0.11275 -8.45737,-1.92876 z m 10.42371,-11.86711 c -0.56878,-2.97539 -0.39555,-3.13895 1.97872,-1.86829 3.21478,1.7205 4.66537,3.87915 2.60675,3.87915 -0.84265,0 -1.17069,0.36141 -0.72898,0.80312 0.44172,0.44173 1.51985,0.21081 2.39584,-0.51313 0.87599,-0.72395 3.84271,-1.73273 6.5927,-2.24171 2.75,-0.50899 6.24089,-1.73282 7.75753,-2.71961 1.51664,-0.98678 3.34477,-1.43123 4.0625,-0.98765 0.71774,0.44359 1.30497,0.015 1.30497,-0.95241 0,-0.96741 2.10938,-2.72755 4.6875,-3.91142 2.57813,-1.18388 7.78125,-5.54667 11.5625,-9.69508 9.22144,-10.11686 13.85502,-14.88387 17.54489,-18.05014 1.69406,-1.45366 5.33011,-5.37141 8.08011,-8.70611 2.75,-3.33469 6.82813,-7.90101 9.0625,-10.14739 2.23438,-2.24637 4.0625,-4.58787 4.0625,-5.20333 0,-0.61546 0.81183,-1.79279 1.80407,-2.61627 2.56503,-2.12878 10.76292,-18.32522 9.77528,-19.31286 -0.45246,-0.45246 -2.53978,1.09148 -4.6385,3.43097 -2.09872,2.33949 -6.62835,5.67459 -10.06585,7.41133 -8.67615,4.38348 -24.26353,16.57965 -36.875,28.85243 -5.84375,5.68682 -13.29687,12.48183 -16.5625,15.10003 -3.26562,2.61822 -5.94255,5.39575 -5.94873,6.1723 -0.0101,1.26729 -10.89041,11.13643 -18.58506,16.85781 -2.22434,1.65391 -2.75308,2.89683 -2.10326,4.94421 1.21812,3.83796 2.9841,3.42135 2.22952,-0.52595 z m 256.212315,-78.30164 c 0.91896,-0.85938 3.91228,-2.6875 6.65179,-4.0625 2.7395005,-1.375 6.0061205,-3.76563 7.2591505,-5.3125 1.25302,-1.54688 3.57805,-2.8125 5.16670998,-2.8125 1.86010002,0 3.12691002,-0.91173 3.55816002,-2.56084 0.40082,-1.53274 2.71763,-3.3653 5.77079,-4.56461 5.1446395,-2.02088 6.7524495,-4.12455 3.1523395,-4.12455 -1.1478,0 -1.62346,0.64221 -1.1573,1.5625 0.43531,0.85937 0.0445,0.66007 -0.86836,-0.44288 -1.4406195,-1.74052 -4.7469795,-2.15517 -10.48792952,-1.31527 -2.66234998,0.38949 -8.93618998,7.15046 -9.75104998,10.50815 -0.4588105,1.89062 -1.3843705,3.4375 -2.0568005,3.4375 -1.59209,0 -11.22979,8.7071 -11.22979,10.14545 0,1.59291 2.05075,1.35767 3.99229,-0.45795 z m -182.470785,-8.17845 c 4.54705,-2.14837 8.62932,-4.49179 9.0717,-5.20759 0.44239,-0.71581 1.59537,-1.30146 2.56217,-1.30146 2.6336,0 13.71963,-7.3576 13.71963,-9.10548 0,-2.04575 -7.83348,-2.69257 -10.0754,-0.83195 -1.39261,1.15577 -2.40928,1.08081 -4.60583,-0.33963 -4.29713,-2.7788 -38.84464,-0.30823 -43.11982,3.0836 -0.85308,0.67681 -3.38433,0.87773 -5.625,0.44649 -2.24067,-0.43124 -5.87702,-1.00967 -8.08078,-1.28538 -2.20375,-0.27571 -4.59674,-0.86589 -5.31776,-1.3115 -0.72101,-0.4456 -3.4729,0.4049 -6.1153,1.89001 -4.57156,2.56937 -4.76307,2.92605 -3.95211,7.36085 0.46874,2.56335 1.21311,5.24453 1.65416,5.95814 1.06214,1.7186 8.85166,3.04886 23.36284,3.98983 22.12504,1.43467 27.43247,0.94843 36.5215,-3.34593 z m 260.018135,-2.73949 c 3.09655,-1.36975 6.33578,-3.34075 7.19829,-4.38001 0.8625,-1.03925 2.25587,-1.88955 3.0964,-1.88955 0.84051,0 2.50455,-1.07885 3.69786,-2.39745 2.1088,-2.33019 1.9718,-2.42216 -4.88426,-3.27878 -11.01595,-1.37635 -17.68888,-0.18414 -21.40349,3.82398 -2.16162,2.33244 -2.96634,4.30214 -2.48707,6.08767 0.38967,1.45177 0.71618,3.65715 0.72557,4.90085 0.01,1.2437 0.58354,1.91117 1.27589,1.48327 0.69236,-0.42789 1.60072,0.113 2.0186,1.20192 0.65945,1.7185 1.04842,1.6471 2.94594,-0.54076 1.2024,-1.38637 4.71972,-3.64139 7.81627,-5.01114 z m 38.46036,-1.30539 c 1.30739,-1.50313 12.676435,-8.71417 13.738905,-8.71417 0.61245,0 1.4017,-0.46622 1.75389,-1.03606 0.35218,-0.56984 -2.2865,-1.02798 -5.86374,-1.01808 -3.57722,0.01 -7.660165,-0.40459 -9.073175,-0.92107 -2.17793,-0.79609 -3.12963,0.0707 -6.25,5.69275 -4.67585,8.42449 -4.93471,9.06865 -3.21804,8.00769 0.82225,-0.50819 1.41216,-0.0466 1.41216,1.10482 0,1.75257 0.39113,1.72869 3.4375,-0.20986 1.89063,-1.20309 3.71875,-2.5108 4.0625,-2.90602 z m 97.187505,3.30344 c 2.23438,-0.53144 4.0625,-1.48406 4.0625,-2.11693 0,-0.63287 1.16828,-1.15068 2.59615,-1.15068 1.42789,0 4.28367,-1.6875 6.34617,-3.75 2.0625,-2.0625 4.20905,-3.75 4.7701,-3.75 0.56106,0 1.34388,-0.84375 1.73962,-1.875 0.39573,-1.03125 1.97465,-1.875 3.50874,-1.875 1.85204,0 2.3709,-0.41833 1.54421,-1.24501 -0.68476,-0.68477 -5.46771,-1.48999 -10.62879,-1.78939 -5.16106,-0.29941 -10.8725,-0.91803 -12.69207,-1.37471 -4.5303,-1.13703 -9.01465,3.47065 -10.12291,10.40131 -0.46242,2.89179 -1.34395,5.2578 -1.95897,5.2578 -0.61501,0 -0.86077,0.98437 -0.54616,2.1875 0.62173,2.37745 4.4138,2.73732 11.38141,1.08011 z M -74.433945,133.55286 c 0,-0.93469 1.98997,-3.60656 4.42215,-5.9375 2.43219,-2.33093 5.87908,-6.7693 7.65977,-9.86305 1.78068,-3.09375 4.94542,-6.75 7.03275,-8.125 2.08732,-1.375 4.40606,-3.57564 5.15273,-4.89031 0.74668,-1.31468 2.20135,-3.35094 3.2326,-4.52503 1.03125,-1.174096 3.84375,-4.996916 6.25,-8.495166 2.40625,-3.49825 5.25364,-6.66946 6.32753,-7.04713 1.07389,-0.37767 3.11501,-3.21358 4.53584,-6.30202 2.28136,-4.959 2.34536,-5.61139 0.54747,-5.58152 -3.92139,0.0651 -18.87416,7.23672 -22.45991,10.77211 -1.99095,1.96299 -5.80376,4.6931 -8.47291,6.06692 -2.66917,1.37381 -5.41552,3.1151 -6.10302,3.86953 -0.6875,0.75443 -3.21875,2.11778 -5.625,3.02967 -5.48532,2.07877 -22.8661,10.923906 -34.374995,17.493556 -9.44138,5.38945 -11.62445,6.4654 -17.72213,8.73463 -5.17653,1.92641 -8.80157,5.85106 -7.03557,7.61706 0.72887,0.72886 9.26855,1.57003 19.28297,1.89939 20.118645,0.66166 24.574225,1.04115 25.723995,2.19091 0.43582,0.43583 3.2299,0.7924 6.20907,0.7924 3.73279,0 5.41666,-0.5283 5.41666,-1.69945 z m 63.39819,-6.07035 c 6.6495005,-6.5669 8.1862005,-9.7302 4.7268105,-9.7302 -1.03125,0 -1.875,-0.5625 -1.875,-1.25 0,-1.98463 -3.4619005,-1.46167 -8.4873005,1.2821 -10.08563,5.50657 -13.47768,7.72661 -15.59362,10.20577 -2.10789,2.46973 -2.10789,2.65898 0,4.2586 1.21326,0.92072 5.00074,1.6919 8.41661,1.71378 5.83091,0.0374 6.6144,-0.35894 12.8125,-6.48005 z m 89.36995,4.23 c 4.2832,-0.76344 7.22174,-2.33984 10.75641,-5.77034 l 4.86327,-4.71993 -2.34809,-4.85997 c -1.29144,-2.67298 -2.97281,-4.85996 -3.73638,-4.85996 -2.81732,0 -11.05335,2.92911 -11.05335,3.93108 0,0.56946 -1.91386,1.83503 -4.25301,2.81239 -5.11662,2.13787 -13.16606,10.47589 -13.21316,13.6869 -0.03,2.04402 0.71017,2.22177 6.52867,1.5678 3.60938,-0.40566 9.21442,-1.21026 12.45564,-1.78797 z m -281.178115,-2.82035 c 9.46825,-0.0225 18.187,0.26152 19.375,0.63111 3.76187,1.17031 4.88443,-0.88028 6.19922,-11.3242 1.22433,-9.7253 1.51458,-10.38896 6.52234,-14.91316 8.58465,-7.755716 13.491,-9.445286 20.29455,-6.988686 4.68112,1.69023 8.04374,-0.0247 13.0783,-6.66991 2.60432,-3.4375 6.55585,-8.13815 8.78117,-10.44588 3.40933,-3.5356 9.1594,-12.6771 9.1594,-14.56167 0,-0.30557 -1.54687,0.005 -3.4375,0.68928 -3.58391,1.29788 -3.9702,1.46478 -15.54758,6.71743 -3.91057,1.77421 -8.75515,3.22584 -10.76578,3.22584 -2.01062,0 -8.09234,1.09541 -13.51491,2.43425 -5.42258,1.33883 -12.95298,2.7892 -16.73423,3.22304 -7.3346,0.84153 -11.3517,2.02997 -19.45715,5.75629 -2.79518,1.28503 -5.82732,2.33642 -6.73807,2.33642 -1.81018,0 -23.92312,11.416846 -31.92978,16.485246 -6.34719,4.01793 -20.625,19.51815 -20.625,22.39085 0,1.99614 1.568,2.12896 19.0625,1.61482 10.48438,-0.30812 26.80925,-0.57861 36.27752,-0.60107 z m 44.34617,-9.88985 c 0.70708,0 1.65786,-1.98438 2.11286,-4.40974 0.455,-2.42535 1.24458,-4.15182 1.75463,-3.8366 0.51005,0.31523 1.00659,-0.47868 1.10342,-1.76425 0.22665,-3.00879 -4.52025,-3.81031 -7.36818,-1.24412 -1.14735,1.03384 -2.47529,3.4319 -2.95098,5.32902 -0.47569,1.89712 -1.36507,3.75844 -1.97641,4.13627 -1.89931,1.17384 -1.22111,4.08077 1.07597,4.61187 1.20313,0.27817 2.81202,-0.24309 3.5753,-1.15835 0.7633,-0.91525 1.96633,-1.6641 2.67339,-1.6641 z M -22.630995,70.368884 c 0.38528,-0.62338 -0.42527,-0.83903 -1.80122,-0.47921 -2.91874,0.76327 -3.28769,1.61264 -0.7005,1.61264 0.99067,0 2.11645,-0.51004 2.50172,-1.13343 z"
       id="path3347"
       inkscape:connector-curvature="0" />
  </g>
</svg>
